<svg xmlns="http://www.w3.org/2000/svg" viewBox="0 0 46 24" width="46" height="24"><defs><style>.a,.b,.c{fill:#7457d5;}.b{opacity:0.24;}.c{opacity:0.12;}</style></defs><g transform="translate(138 -326)"><path class="a" d="M5.8,17A6.205,6.205,0,0,1,12,10.8h8V7H12a10,10,0,0,0,0,20h8V23.2H12A6.205,6.205,0,0,1,5.8,17ZM14,19H30V15H14ZM32,7H24v3.8h8a6.2,6.2,0,1,1,0,12.4H24V27h8A10,10,0,0,0,32,7Z" transform="translate(-140 319)"/><path class="b" d="M5.8,17A6.205,6.205,0,0,1,12,10.8h8V7H12a10,10,0,0,0,0,20h8V23.2H12A6.205,6.205,0,0,1,5.8,17ZM14,19H30V15H14ZM32,7H24v3.8h8a6.2,6.2,0,1,1,0,12.4H24V27h8A10,10,0,0,0,32,7Z" transform="translate(-137 321)"/><path class="c" d="M5.8,17A6.205,6.205,0,0,1,12,10.8h8V7H12a10,10,0,0,0,0,20h8V23.2H12A6.205,6.205,0,0,1,5.8,17ZM14,19H30V15H14ZM32,7H24v3.8h8a6.2,6.2,0,1,1,0,12.4H24V27h8A10,10,0,0,0,32,7Z" transform="translate(-134 323)"/></g></svg>