<svg xmlns="http://www.w3.org/2000/svg" viewBox="0 0 44.909 44" width="45" height="44"><defs><style>.a,.b,.c{fill:#7457d5;}.b{opacity:0.24;}.c{opacity:0.12;}</style></defs><g transform="translate(339 -304)"><path class="a" d="M36.589,23.96a15.586,15.586,0,0,0,.14-1.96,15.586,15.586,0,0,0-.14-1.96l4.22-3.3a1.009,1.009,0,0,0,.24-1.28l-4-6.92a1,1,0,0,0-1.22-.44l-4.98,2a14.612,14.612,0,0,0-3.38-1.96l-.76-5.3a.975.975,0,0,0-.98-.84h-8a.975.975,0,0,0-.98.84l-.76,5.3a15.366,15.366,0,0,0-3.38,1.96l-4.98-2a.976.976,0,0,0-1.22.44l-4,6.92a.986.986,0,0,0,.24,1.28l4.22,3.3A15.861,15.861,0,0,0,6.729,22a15.861,15.861,0,0,0,.14,1.96l-4.22,3.3a1.009,1.009,0,0,0-.24,1.28l4,6.92a1,1,0,0,0,1.22.44l4.98-2a14.612,14.612,0,0,0,3.38,1.96l.76,5.3a.975.975,0,0,0,.98.84h8a.975.975,0,0,0,.98-.84l.76-5.3a15.366,15.366,0,0,0,3.38-1.96l4.98,2a.976.976,0,0,0,1.22-.44l4-6.92a1.009,1.009,0,0,0-.24-1.28ZM21.729,29a7,7,0,1,1,7-7A7.008,7.008,0,0,1,21.729,29Z" transform="translate(-341.271 302)"/><path class="b" d="M36.589,23.96a15.586,15.586,0,0,0,.14-1.96,15.586,15.586,0,0,0-.14-1.96l4.22-3.3a1.009,1.009,0,0,0,.24-1.28l-4-6.92a1,1,0,0,0-1.22-.44l-4.98,2a14.612,14.612,0,0,0-3.38-1.96l-.76-5.3a.975.975,0,0,0-.98-.84h-8a.975.975,0,0,0-.98.84l-.76,5.3a15.366,15.366,0,0,0-3.38,1.96l-4.98-2a.976.976,0,0,0-1.22.44l-4,6.92a.986.986,0,0,0,.24,1.28l4.22,3.3A15.861,15.861,0,0,0,6.729,22a15.861,15.861,0,0,0,.14,1.96l-4.22,3.3a1.009,1.009,0,0,0-.24,1.28l4,6.92a1,1,0,0,0,1.22.44l4.98-2a14.612,14.612,0,0,0,3.38,1.96l.76,5.3a.975.975,0,0,0,.98.84h8a.975.975,0,0,0,.98-.84l.76-5.3a15.366,15.366,0,0,0,3.38-1.96l4.98,2a.976.976,0,0,0,1.22-.44l4-6.92a1.009,1.009,0,0,0-.24-1.28ZM21.729,29a7,7,0,1,1,7-7A7.008,7.008,0,0,1,21.729,29Z" transform="translate(-338.271 304)"/><path class="c" d="M36.589,23.96a15.586,15.586,0,0,0,.14-1.96,15.586,15.586,0,0,0-.14-1.96l4.22-3.3a1.009,1.009,0,0,0,.24-1.28l-4-6.92a1,1,0,0,0-1.22-.44l-4.98,2a14.612,14.612,0,0,0-3.38-1.96l-.76-5.3a.975.975,0,0,0-.98-.84h-8a.975.975,0,0,0-.98.84l-.76,5.3a15.366,15.366,0,0,0-3.38,1.96l-4.98-2a.976.976,0,0,0-1.22.44l-4,6.92a.986.986,0,0,0,.24,1.28l4.22,3.3A15.861,15.861,0,0,0,6.729,22a15.861,15.861,0,0,0,.14,1.96l-4.22,3.3a1.009,1.009,0,0,0-.24,1.28l4,6.92a1,1,0,0,0,1.22.44l4.98-2a14.612,14.612,0,0,0,3.38,1.96l.76,5.3a.975.975,0,0,0,.98.84h8a.975.975,0,0,0,.98-.84l.76-5.3a15.366,15.366,0,0,0,3.38-1.96l4.98,2a.976.976,0,0,0,1.22-.44l4-6.92a1.009,1.009,0,0,0-.24-1.28ZM21.729,29a7,7,0,1,1,7-7A7.008,7.008,0,0,1,21.729,29Z" transform="translate(-335.271 306)"/></g></svg>