<?xml version="1.0" encoding="utf-8"?>
<!-- Generator: Adobe Illustrator 22.1.0, SVG Export Plug-In . SVG Version: 6.00 Build 0)  -->
<svg version="1.1" id="Layer_1" xmlns="http://www.w3.org/2000/svg" xmlns:xlink="http://www.w3.org/1999/xlink" x="0px" y="0px"
	 viewBox="0 0 24 18" enable-background="new 0 0 24 18" xml:space="preserve">
<g>
	<linearGradient id="SVGID_1_" gradientUnits="userSpaceOnUse" x1="23.4897" y1="18.5723" x2="-0.4687" y2="0.6973">
		<stop  offset="0" style="stop-color:#FF6950"/>
		<stop  offset="1" style="stop-color:#A13CD6"/>
	</linearGradient>
	<polygon fill="url(#SVGID_1_)" points="12,14 0,2 0,18 24,18 24,2 	"/>
	<polygon opacity="0.24" fill="#FFFFFF" points="0,18 12,6 24,18 	"/>
	<polygon fill="#1CC976" points="8,10 10,8 12,10 18,4 20,6 12,14 	"/>
	<linearGradient id="SVGID_2_" gradientUnits="userSpaceOnUse" x1="27.0806" y1="13.7593" x2="3.1223" y2="-4.1157">
		<stop  offset="0" style="stop-color:#FF6950"/>
		<stop  offset="1" style="stop-color:#A13CD6"/>
	</linearGradient>
	<polygon fill="url(#SVGID_2_)" points="2,0 6,4 6,8 8,6 12,10 22,0 	"/>
	<polygon opacity="0.24" points="6,4 6,8 8,6 22,0 	"/>
	<polygon opacity="0.24" points="0,18 0,17 7.5,9.5 8,10 	"/>
	<polygon opacity="0.24" points="24,18 24,17 16.5,9.5 16,10 	"/>
	<polygon opacity="0.24" points="12,11 18.5,4.5 18,4 12,10 10,8 9.5,8.5 	"/>
</g>
</svg>
